<svg xmlns="http://www.w3.org/2000/svg" version="1.1" xmlns:xlink="http://www.w3.org/1999/xlink" viewBox="0 0 200 200"><rect width="200" height="200" fill="url('#gradient')"></rect><defs><linearGradient id="gradient" gradientTransform="rotate(298 0.5 0.5)"><stop offset="0%" stop-color="#0cc0e8"></stop><stop offset="100%" stop-color="#0e5278"></stop></linearGradient></defs><g><g fill="#295786" transform="matrix(6.660162601626016,0,0,6.660162601626016,12.850832617573616,147.35801196679836)" stroke="#0e5278" stroke-width="0.2"><path d="M8.94 0L5.91-5.29L4.50-3.75L4.50 0L1.07 0L1.07-14.22L4.50-14.22L4.50-7.95L5.69-9.76L8.76-14.22L13.00-14.22L8.19-7.93L13.00 0L8.94 0ZM21.66-4.81L25.07-4.81Q25-3.33 24.27-2.19Q23.54-1.05 22.21-0.43Q20.89 0.20 19.19 0.20L19.19 0.20Q16.39 0.20 14.78-1.63Q13.16-3.46 13.16-6.79L13.16-6.79L13.16-7.49Q13.16-9.58 13.89-11.15Q14.62-12.71 15.99-13.57Q17.35-14.42 19.15-14.42L19.15-14.42Q21.74-14.42 23.31-13.06Q24.88-11.70 25.10-9.31L25.10-9.31L21.68-9.31Q21.64-10.61 21.03-11.17Q20.41-11.74 19.15-11.74L19.15-11.74Q17.87-11.74 17.28-10.78Q16.68-9.82 16.65-7.72L16.65-7.72L16.65-6.72Q16.65-4.44 17.22-3.47Q17.79-2.49 19.19-2.49L19.19-2.49Q20.37-2.49 21.00-3.05Q21.62-3.60 21.66-4.81L21.66-4.81Z"></path></g></g></svg>